<svg xmlns="http://www.w3.org/2000/svg" width="256" height="256" viewBox="0 0 100 100"><rect width="100" height="100" rx="20" fill="#fe9b0a"></rect><path fill="#fff" d="M25.96 45.90L25.96 45.90Q25.96 43.34 25.18 41.52Q24.40 39.70 23.06 38.54Q21.72 37.38 19.94 36.84Q18.16 36.30 16.12 36.30L16.12 36.30Q14.84 36.30 13.90 36.38Q12.96 36.46 12.16 36.62L12.16 36.62L12.16 55.66Q13.12 55.90 14.22 55.98Q15.32 56.06 16.48 56.06L16.48 56.06Q21.20 56.06 23.58 53.50Q25.96 50.94 25.96 45.90ZM29.28 45.90L29.28 45.90Q29.28 49.18 28.38 51.60Q27.48 54.02 25.82 55.62Q24.16 57.22 21.80 58Q19.44 58.78 16.52 58.78L16.52 58.78Q15.24 58.78 13.64 58.68Q12.04 58.58 10.60 58.14L10.60 58.14Q8.92 57.62 8.92 56.30L8.92 56.30L8.92 35.74Q8.92 35.10 9.24 34.76Q9.56 34.42 10.24 34.22L10.24 34.22Q11.48 33.82 13.04 33.70Q14.60 33.58 16.16 33.58L16.16 33.58Q19.08 33.58 21.50 34.36Q23.92 35.14 25.64 36.68Q27.36 38.22 28.32 40.52Q29.28 42.82 29.28 45.90ZM51.60 49.10L51.60 49.10Q51.60 51.34 50.96 53.14Q50.32 54.94 49.14 56.22Q47.96 57.50 46.28 58.18Q44.60 58.86 42.52 58.86L42.52 58.86Q40.44 58.86 38.76 58.18Q37.08 57.50 35.88 56.22Q34.68 54.94 34.04 53.14Q33.40 51.34 33.40 49.10L33.40 49.10Q33.40 46.86 34.06 45.06Q34.72 43.26 35.92 41.98Q37.12 40.70 38.80 40.02Q40.48 39.34 42.52 39.34L42.52 39.34Q44.56 39.34 46.24 40.02Q47.92 40.70 49.10 41.98Q50.28 43.26 50.94 45.06Q51.60 46.86 51.60 49.10ZM42.52 41.98L42.52 41.98Q39.80 41.98 38.24 43.86Q36.68 45.74 36.68 49.10L36.68 49.10Q36.68 52.50 38.22 54.36Q39.76 56.22 42.52 56.22L42.52 56.22Q45.28 56.22 46.80 54.34Q48.32 52.46 48.32 49.10L48.32 49.10Q48.32 45.74 46.78 43.86Q45.24 41.98 42.52 41.98ZM68.92 58.94L68.92 56.42Q68.24 56.98 67.06 57.38Q65.88 57.78 64.24 57.78L64.24 57.78Q62.48 57.78 60.92 57.28Q59.36 56.78 58.18 55.68Q57 54.58 56.30 52.82Q55.60 51.06 55.60 48.54L55.60 48.54Q55.60 46.26 56.28 44.54Q56.96 42.82 58.18 41.66Q59.40 40.50 61.08 39.92Q62.76 39.34 64.80 39.34L64.80 39.34Q66.64 39.34 68.18 39.80Q69.72 40.26 70.76 40.94L70.76 40.94Q71.36 41.34 71.74 41.84Q72.12 42.34 72.12 43.06L72.12 43.06L72.12 59.14Q72.12 61.14 71.46 62.52Q70.80 63.90 69.62 64.76Q68.44 65.62 66.84 66.02Q65.24 66.42 63.40 66.42L63.40 66.42Q61.36 66.42 59.94 66Q58.52 65.58 58 65.26L58 65.26Q56.80 64.58 56.80 63.54L56.80 63.54Q56.80 62.98 57.06 62.60Q57.32 62.22 57.72 62.02L57.72 62.02Q58.56 62.66 60.08 63.20Q61.60 63.74 63.40 63.74L63.40 63.74Q66.08 63.74 67.50 62.60Q68.92 61.46 68.92 58.94L68.92 58.94ZM64.60 55.14L64.60 55.14Q66.20 55.14 67.22 54.64Q68.24 54.14 68.92 53.50L68.92 53.50L68.92 43.10Q68.24 42.66 67.22 42.32Q66.20 41.98 64.80 41.98L64.80 41.98Q62.08 41.98 60.46 43.62Q58.84 45.26 58.84 48.50L58.84 48.50Q58.84 50.30 59.28 51.56Q59.72 52.82 60.50 53.62Q61.28 54.42 62.34 54.78Q63.40 55.14 64.60 55.14ZM91.08 53.42L91.08 53.42Q91.08 55.98 89.20 57.42Q87.32 58.86 83.76 58.86L83.76 58.86Q82.24 58.86 80.96 58.60Q79.68 58.34 78.78 57.92Q77.88 57.50 77.38 56.96Q76.88 56.42 76.88 55.86L76.88 55.86Q76.88 55.38 77.14 54.94Q77.40 54.50 77.92 54.18L77.92 54.18Q79 54.98 80.44 55.60Q81.88 56.22 83.72 56.22L83.72 56.22Q87.88 56.22 87.88 53.42L87.88 53.42Q87.88 51.14 85.12 50.46L85.12 50.46L81.80 49.58Q79.36 48.94 78.24 47.72Q77.12 46.50 77.12 44.58L77.12 44.58Q77.12 43.54 77.54 42.58Q77.96 41.62 78.84 40.90Q79.72 40.18 81.02 39.76Q82.32 39.34 84.08 39.34L84.08 39.34Q86.88 39.34 88.60 40.16Q90.32 40.98 90.32 42.06L90.32 42.06Q90.32 42.58 90.06 42.98Q89.80 43.38 89.36 43.58L89.36 43.58Q88.64 43.10 87.32 42.54Q86 41.98 84.20 41.98L84.20 41.98Q82.40 41.98 81.34 42.66Q80.28 43.34 80.28 44.58L80.28 44.58Q80.28 45.50 80.88 46.14Q81.48 46.78 82.88 47.10L82.88 47.10L85.64 47.78Q88.36 48.46 89.72 49.80Q91.08 51.14 91.08 53.42Z"></path></svg>